HIERARCHY
ROOT root
{
	OFFSET 0.000000 0.000000 0.000000
	CHANNELS 6 Xposition Yposition Zposition Zrotation Yrotation Xrotation
	JOINT lhip
	{
		OFFSET 0.058581 -0.082280 -0.017664
		CHANNELS 3 Zrotation Yrotation Xrotation
		JOINT lknee
		{
			OFFSET 0.043451 -0.386469 0.008037
			CHANNELS 3 Zrotation Yrotation Xrotation
			JOINT lankle
			{
				OFFSET -0.014790 -0.426874 -0.037428
				CHANNELS 3 Zrotation Yrotation Xrotation
				JOINT ltoe
				{
					OFFSET 0.041054 -0.060286 0.122042
					CHANNELS 3 Zrotation Yrotation Xrotation
					End Site
					{
						OFFSET 0.000000 0.000000 0.000000
					}
				}
			}
		}
	}
	JOINT rhip
	{
		OFFSET -0.060310 -0.090513 -0.013543
		CHANNELS 3 Zrotation Yrotation Xrotation
		JOINT rknee
		{
			OFFSET -0.043257 -0.383688 -0.004843
			CHANNELS 3 Zrotation Yrotation Xrotation
			JOINT rankle
			{
				OFFSET 0.019056 -0.420046 -0.034562
				CHANNELS 3 Zrotation Yrotation Xrotation
				JOINT rtoe
				{
					OFFSET -0.034840 -0.062106 0.130323
					CHANNELS 3 Zrotation Yrotation Xrotation
					End Site
					{
						OFFSET 0.000000 0.000000 0.000000
					}
				}
			}
		}
	}
	JOINT lowerback
	{
		OFFSET 0.004439 0.124404 -0.038385
		CHANNELS 3 Zrotation Yrotation Xrotation
		JOINT upperback
		{
			OFFSET 0.004488 0.137956 0.026820
			CHANNELS 3 Zrotation Yrotation Xrotation
			JOINT chest
			{
				OFFSET -0.002265 0.056032 0.002855
				CHANNELS 3 Zrotation Yrotation Xrotation
				JOINT lowerneck
				{
					OFFSET -0.013390 0.211636 -0.033468
					CHANNELS 3 Zrotation Yrotation Xrotation
					JOINT upperneck
					{
						OFFSET 0.010113 0.088937 0.050410
						CHANNELS 3 Zrotation Yrotation Xrotation
						End Site
						{
							OFFSET 0.000000 0.000000 0.000000
						}
					}
				}
				JOINT lclavicle
				{
					OFFSET 0.071702 0.114000 -0.018898
					CHANNELS 3 Zrotation Yrotation Xrotation
					JOINT lshoulder
					{
						OFFSET 0.122921 0.045205 -0.019046
						CHANNELS 3 Zrotation Yrotation Xrotation
						JOINT lelbow
						{
							OFFSET 0.255332 -0.015649 -0.022946
							CHANNELS 3 Zrotation Yrotation Xrotation
							JOINT lwrist
							{
								OFFSET 0.265709 0.012698 -0.007375
								CHANNELS 3 Zrotation Yrotation Xrotation
								End Site
								{
									OFFSET 0.000000 0.000000 0.000000
								}
							}
						}
					}
				}
				JOINT rclavicle
				{
					OFFSET -0.082954 0.112472 -0.023707
					CHANNELS 3 Zrotation Yrotation Xrotation
					JOINT rshoulder
					{
						OFFSET -0.113228 0.046853 -0.008472
						CHANNELS 3 Zrotation Yrotation Xrotation
						JOINT relbow
						{
							OFFSET -0.260127 -0.014369 -0.031269
							CHANNELS 3 Zrotation Yrotation Xrotation
							JOINT rwrist
							{
								OFFSET -0.269108 0.006794 -0.006027
								CHANNELS 3 Zrotation Yrotation Xrotation
								End Site
								{
									OFFSET 0.000000 0.000000 0.000000
								}
							}
						}
					}
				}
			}
		}
	}
}
MOTION
Frames: 10
Frame Time: 0.033333
0.010063 0.839927 1.004098 175.859530 1.216462 83.487620 4.416555 -0.206415 -16.021663 -2.244139 11.798595 20.386174 -1.833176 12.159467 -12.043812 0.000000 -0.000000 0.000000 4.074027 -3.438565 12.028577 0.681937 5.327299 6.377432 1.289883 -1.613196 -14.429233 0.000000 -0.000000 0.000000 0.582010 4.991136 8.246400 2.230504 -2.640663 -0.128616 0.436645 -0.939619 1.976179 2.718440 4.687023 -7.893049 -0.661110 1.903368 3.602570 -25.389170 10.649931 6.423313 -63.808001 7.316717 8.389136 12.811663 -29.513305 5.293314 16.169966 -17.764138 -29.318648 25.695259 0.655693 -0.743984 60.557501 14.258776 15.260850 -15.956236 27.745631 -6.321762 -8.221110 10.784729 -11.177831 
0.007897 0.882657 0.995486 173.998798 1.431888 83.838210 4.742673 0.816145 -17.902914 -1.946470 11.895419 11.387736 -2.285640 10.842031 -9.751275 0.000000 -0.000000 0.000000 3.397646 -3.847318 14.782663 0.711444 6.401663 6.187451 0.905950 -0.565407 -15.847689 0.000000 -0.000000 0.000000 1.164636 5.701081 7.478116 1.912267 -2.141913 0.640296 0.329994 -0.230911 2.020502 2.861409 5.401331 -8.352175 -1.460167 1.278512 3.581344 -24.815839 12.347643 6.426019 -65.547983 9.790227 6.651336 14.403859 -26.493435 4.418129 15.958164 -16.463643 -30.026146 25.059449 1.167644 -1.125270 62.400888 18.460762 16.278709 -18.215054 31.044892 -6.886282 -9.880039 11.866804 -11.929528 
0.004986 0.926402 0.986480 171.661089 1.232348 84.121089 4.775997 1.736761 -18.560968 -2.217312 10.342965 2.933563 -3.227060 8.712728 -5.921734 0.000000 -0.000000 0.000000 2.234477 -3.841602 16.775841 0.427080 8.246097 7.615593 0.994381 0.567047 -17.183410 0.000000 -0.000000 0.000000 1.288923 6.437895 6.784939 1.557007 -1.255906 1.407281 0.164906 0.692432 1.795093 3.070431 5.954569 -8.953373 -2.289773 0.645818 3.714327 -24.708316 14.089625 6.007328 -65.816945 12.246646 5.083868 15.297609 -24.470924 2.343422 16.731542 -15.288623 -30.339269 24.949111 1.701973 -1.467750 63.450873 21.568060 17.061598 -20.124376 34.666162 -8.632155 -10.837979 12.352093 -12.129885 
0.001924 0.971756 0.978591 170.008551 0.995919 84.122105 4.715132 1.484613 -18.706709 -1.705076 6.901934 -1.875710 -3.334152 6.760922 -5.143566 0.000000 -0.000000 0.000000 1.368081 -3.218816 18.878429 -0.108723 10.151712 9.667437 1.299615 0.994909 -17.891217 0.000000 -0.000000 0.000000 0.990333 6.882354 6.190295 1.389207 -0.717528 2.123642 0.172790 1.261407 1.835492 3.454307 6.745571 -9.313507 -3.095300 0.334586 4.054991 -24.720550 15.415693 5.997973 -65.589122 14.290178 3.786049 16.347419 -23.883730 0.604054 17.305509 -15.023309 -30.586135 25.008376 2.487824 -1.432424 63.942131 24.197262 17.773433 -21.690224 37.643008 -10.226241 -11.385213 12.407276 -12.722182 
-0.002330 1.019981 0.972783 169.277172 0.625702 84.108626 4.693974 0.308959 -19.338833 -2.158914 5.629648 -0.314399 -3.045414 6.392329 -6.221616 0.000000 -0.000000 0.000000 0.356230 -2.695556 20.518260 -0.412135 12.073237 12.809474 1.757425 1.375298 -16.573564 0.000000 -0.000000 0.000000 0.459064 7.390831 5.333806 1.492133 -0.867198 2.697292 0.057328 1.300294 2.006901 3.868956 6.814661 -9.511717 -3.515577 0.411993 4.141679 -24.373087 16.203405 6.513215 -65.283737 16.123336 3.051905 16.565613 -24.216049 -0.045776 18.189899 -14.583491 -31.204508 24.914444 2.973671 -1.571694 64.618039 25.553321 18.727231 -22.826727 39.768307 -11.029333 -11.618433 12.338872 -12.855133 
-0.007004 1.071435 0.969098 169.115598 0.286626 84.896548 4.387190 -1.701490 -20.450355 -2.508704 4.119915 5.372421 -1.860992 6.965928 -4.802365 0.000000 -0.000000 0.000000 -0.447345 -2.051254 20.721086 -0.033983 14.402661 17.016857 3.024882 0.672427 -13.641644 0.000000 -0.000000 0.000000 -0.412519 7.881387 2.255070 2.101932 -1.557356 5.585236 -0.330535 0.945369 0.093268 3.901368 5.625383 -8.573893 -3.181500 1.584165 4.752976 -23.061245 14.948754 8.652423 -67.545976 17.909607 -3.598937 15.981865 -24.973988 2.138343 21.962399 -15.594803 -30.419026 23.209203 4.430607 -1.021557 66.551352 24.174236 16.821962 -24.174083 42.152066 -12.073904 -6.348577 13.166917 -10.763032 
-0.013157 1.123991 0.969922 169.544214 -0.384100 85.755650 3.219979 -3.229649 -21.279790 -2.334001 6.352481 9.683554 0.998807 9.948469 1.082592 0.000000 -0.000000 0.000000 -1.141293 -0.861353 19.212654 0.953639 14.265975 23.211862 3.573701 0.587496 -5.563694 0.000000 -0.000000 0.000000 -1.851139 7.711756 0.581519 2.684362 -1.896197 4.853702 -0.451792 0.602273 0.531246 3.812914 4.508429 -8.053557 -2.606247 2.475964 4.955734 -22.622197 15.098474 9.505014 -67.741019 18.158626 -3.267689 16.235073 -24.659581 1.306553 24.936702 -14.240790 -30.638792 23.629109 3.500169 -1.442996 66.994843 22.134951 18.357350 -24.492954 43.567227 -11.777474 -5.854017 12.952566 -10.427560 
-0.019867 1.177308 0.974656 170.183466 -1.489139 85.762830 2.066962 -5.343071 -20.314928 -3.491404 7.072117 14.070740 2.664926 11.568104 1.742016 0.000000 -0.000000 0.000000 -2.403537 -0.098946 16.155390 2.538284 11.876642 31.895542 4.700853 -1.039846 6.094909 0.000000 -0.000000 0.000000 -3.596301 7.483992 -0.526732 3.028825 -2.152060 4.819587 -0.497107 0.303331 1.182735 3.616667 3.486715 -8.503871 -2.009974 3.169726 5.864361 -22.473737 14.381235 9.782520 -67.597274 17.169140 -2.042589 16.148864 -24.337487 -0.144850 29.060685 -13.693560 -29.780806 24.193394 2.657894 -1.916861 67.104705 19.311062 19.682845 -24.236611 43.536008 -11.958773 -6.201740 13.071240 -10.163356 
-0.026182 1.226638 0.979428 170.686210 -2.378513 85.323543 0.336087 -5.909277 -18.216117 -4.424293 7.170444 16.955176 4.904928 12.669608 -1.734797 0.000000 -0.000000 0.000000 -3.277869 0.360506 11.836057 2.785024 9.165008 41.833052 6.548356 -3.185513 17.678323 0.000000 -0.000000 0.000000 -4.490559 6.609836 0.620248 2.893328 -1.998380 3.255743 -0.556575 -0.019611 1.702913 2.869774 2.417011 -8.402226 -1.348551 3.900272 5.346254 -21.916443 13.536197 10.047324 -67.572997 15.418106 -1.247692 15.517483 -24.559456 -0.214704 29.255271 -14.320909 -30.163714 23.527862 2.074115 -2.164693 68.498566 16.069560 21.026036 -23.164962 42.068476 -11.228764 -5.807054 12.399740 -9.965137 
-0.032063 1.273678 0.984281 170.921492 -2.911600 84.703177 -1.351583 -5.854389 -14.700477 -4.926538 6.687956 17.613474 6.533734 13.468994 -4.262974 0.000000 -0.000000 0.000000 -3.778281 0.597286 6.640703 1.316497 5.956601 50.228680 6.891925 -8.278503 27.534070 0.000000 -0.000000 0.000000 -4.746048 5.074938 2.096343 2.681273 -1.546970 2.060857 -0.628356 -0.320999 2.372890 2.305519 1.626926 -8.969573 -1.158487 5.602092 5.639317 -22.695749 12.854928 9.684036 -66.445812 12.458697 0.140172 14.836610 -24.893423 -0.565588 28.672768 -15.164758 -30.738300 23.743887 1.705574 -2.583897 68.543369 13.564807 22.502953 -21.539017 39.052016 -10.084848 -3.474716 12.264527 -7.590085 
